<svg width="384" height="200" xmlns="http://www.w3.org/2000/svg" p-id="13219" version="1.1" class="icon" t="1648392852481">
 <g id="Layer_1">
  <title>Layer 1</title>
  <g>

   <g id="svg_2">
    <path fill-rule="nonzero" fill="#007cc2" id="svg_4" d="m257.21875,73.47322c-1.82988,-0.04138 -3.72031,0.1725 -5.65625,0.65625c-8.9525,2.23625 -18.97375,13.7525 -8.03125,27.03125l6.53125,7.90625l1.84375,2.25c1.2375,1.47125 3.2625,1.445 4.75,0.21875c1.495,-1.2325 1.92,-3.25375 0.6875,-4.75c-0.00158,-0.0021 -0.52263,-0.63275 -0.75,-0.90625l0.03125,0c-0.47206,-0.56789 -0.57453,-0.66312 -1.0625,-1.25c-2.36375,-2.84284 -5.0625,-6.125 -5.0625,-6.125c-4.75125,-5.76625 -2.63125,-12.89 3.8125,-16.9375c5.6775,-3.56625 16.09625,-2.2925 19.6875,3.5625c-2.2618,-6.6757 -8.85175,-11.47695 -16.78125,-11.65625zm1.3125,13.9375c-0.84422,-0.02875 -1.72563,0.29312 -2.46875,0.90625c-1.4975,1.23375 -1.91875,3.2575 -0.6875,4.75c0.0025,0.00375 0.15125,0.18875 0.40625,0.5c2.83236,3.40291 6.59375,7.96875 6.59375,7.96875c4.7525,5.76625 2.63125,12.85875 -3.8125,16.90625c-5.67625,3.565 -16.09625,2.28875 -19.6875,-3.5625c2.78375,8.2125 12.11375,13.58125 22.4375,11c8.955,-2.24 18.97375,-13.72375 8.03125,-27l-7.65625,-9.25l-0.875,-1.09375c-0.61875,-0.73563 -1.43703,-1.09625 -2.28125,-1.125z"/>
    <path fill-rule="nonzero" fill="#000000" id="svg_3" d="m292.28125,79.78572c-5.66875,0 -12.15625,2.92375 -12.15625,9.96875c0,6.70625 5.33375,8.58875 10.625,9.875c5.355,1.28625 10.65625,2.03125 10.65625,6.5c0,4.4025 -4.535,5.21875 -7.875,5.21875c-4.40875,0 -8.5625,-1.60375 -8.75,-6.75l-5.34375,0c0.3125,8.66875 6.47375,11.84375 13.78125,11.84375c6.61625,0 13.875,-2.6975 13.875,-11.03125c0,-6.77375 -5.3025,-8.68125 -10.65625,-9.96875c-4.975,-1.28625 -10.65625,-1.9625 -10.65625,-6.09375c0,-3.5225 3.725,-4.46875 6.9375,-4.46875c3.53,0 7.1825,1.40375 7.5625,5.875l5.34375,0c-0.44,-8.535 -6.1625,-10.96875 -13.34375,-10.96875zm30.875,0c-7.24625,0 -13.5,3.05 -13.8125,11.71875l5.34375,0c0.2525,-5.1475 3.59,-6.625 8.125,-6.625c3.40375,0 7.25,0.8 7.25,5.8125c0,4.335 -5.015,3.93625 -10.9375,5.15625c-5.54125,1.15125 -11.03125,2.855 -11.03125,10.78125c0,6.9775 4.8575,9.8125 10.78125,9.8125c4.53125,0 8.4775,-1.71375 11.4375,-5.4375c0,3.79125 1.79,5.4375 4.5625,5.4375c1.69875,0 2.8675,-0.36 3.8125,-0.96875l0,-4.46875c-0.6925,0.27125 -1.185,0.34375 -1.625,0.34375c-1.7,0 -1.6875,-1.195 -1.6875,-3.90625l0,-18.03125c0,-8.195 -6.36,-9.625 -12.21875,-9.625zm28,0c-5.66875,0 -12.15625,2.92375 -12.15625,9.96875c0,6.70625 5.36625,8.58875 10.65625,9.875c5.35625,1.28625 10.65625,2.03125 10.65625,6.5c0,4.4025 -4.53625,5.21875 -7.875,5.21875c-4.41,0 -8.5625,-1.60375 -8.75,-6.75l-5.375,0c0.31375,8.66875 6.50625,11.84375 13.8125,11.84375c6.6125,0 13.84375,-2.6975 13.84375,-11.03125c0,-6.77375 -5.3025,-8.68125 -10.65625,-9.96875c-4.97375,-1.28625 -10.625,-1.9625 -10.625,-6.09375c0,-3.5225 3.69375,-4.46875 6.90625,-4.46875c3.52625,0 7.18125,1.40375 7.5625,5.875l5.375,0c-0.43875,-8.535 -6.19125,-10.96875 -13.375,-10.96875zm-21.15625,17.75l0,5.90625c0,3.18375 -2.88125,7.90625 -9.9375,7.90625c-3.2725,0 -6.3125,-1.36125 -6.3125,-5.15625c0,-4.26625 3.0375,-5.60375 6.5625,-6.28125c3.59125,-0.67625 7.61,-0.75 9.6875,-2.375zm-53.03125,15.34375c-1.13,0 -2.09375,0.8775 -2.09375,2.0625c0,1.19 0.96375,2.0625 2.09375,2.0625c1.12,0 2.0625,-0.8725 2.0625,-2.0625c0,-1.185 -0.9425,-2.0625 -2.0625,-2.0625zm88.9375,0c-1.13375,0 -2.09375,0.87875 -2.09375,2.0625c0,1.19125 0.96,2.0625 2.09375,2.0625c1.11875,0 2.09375,-0.87125 2.09375,-2.0625c0,-1.18375 -0.975,-2.0625 -2.09375,-2.0625zm-88.9375,0.34375c0.9275,0 1.65625,0.74 1.65625,1.71875c0,0.9875 -0.72875,1.71875 -1.65625,1.71875c-0.945,0 -1.6875,-0.73125 -1.6875,-1.71875c0,-0.97875 0.7425,-1.71875 1.6875,-1.71875zm88.9375,0c0.9275,0 1.6875,0.74125 1.6875,1.71875c0,0.98875 -0.76,1.71875 -1.6875,1.71875c-0.94625,0 -1.65625,-0.73 -1.65625,-1.71875c0,-0.9775 0.71,-1.71875 1.65625,-1.71875zm-89.75,0.53125l0,2.375l0.375,0l0,-1.03125l0.40625,0l0.625,1.03125l0.40625,0l-0.6875,-1.0625c0.3525,-0.04 0.625,-0.19875 0.625,-0.625c0,-0.47 -0.27875,-0.6875 -0.84375,-0.6875l-0.90625,0zm88.96875,0l0,2.375l0.34375,0l0,-1.03125l0.4375,0l0.625,1.03125l0.40625,0l-0.6875,-1.0625c0.34625,-0.03875 0.625,-0.19875 0.625,-0.625c0,-0.47 -0.2825,-0.6875 -0.84375,-0.6875l-0.90625,0zm-88.59375,0.3125l0.5,0c0.2475,0 0.5,0.04875 0.5,0.34375c0,0.3625 -0.25375,0.375 -0.5625,0.375l-0.4375,0l0,-0.71875zm88.9375,0l0.5,0c0.2525,0 0.53125,0.0475 0.53125,0.34375c0,0.3625 -0.2875,0.375 -0.59375,0.375l-0.4375,0l0,-0.71875z"/>
   </g>
  </g>
  <g>

   <g data-name="Layer 2" id="svg_6">
    <g data-name="Layer 3" id="svg_7">
     <path fill="#cdcccc" d="m55.09,99.07578a3,3 0 0 0 -6,0a2.76,2.76 0 0 0 1.91,2.55l0,4.57a15.27,15.27 0 0 0 -6.91,-7.85c0.46,-1 0.93,-1.86 1.38,-2.65a65.83,65.83 0 0 1 5.67,-7.24c1.13,-1.34 2.2,-2.6 3.07,-3.7c2.44,-3.06 5.12,-7.58 4.62,-10.26a2.56,2.56 0 0 0 -1.25,-1.81c-3.39,-2 -8,4.5 -12.53,10.77c-3,4.14 -4.55,10 -5.26,13.29a19.86,19.86 0 0 0 -4.23,-0.46a18.63,18.63 0 0 0 -6.08,1a85.14,85.14 0 0 1 0.33,-11c1,-9.51 0.56,-15.09 -1.29,-17a2.43,2.43 0 0 0 -1.96,-0.88c-5.46,0.27 -4.84,16.58 -4.75,18.44c0.22,4.46 2,9.88 3.08,12.88a15.44,15.44 0 0 0 -5.25,7.81l-0.39,0a3.11,3.11 0 0 0 -3.25,3l0,5.17a3.12,3.12 0 0 0 3.25,3l0.66,0a13.34,13.34 0 0 0 3.29,4.63l-1,0.88a1.17,1.17 0 0 0 -0.13,1.64c3,3.65 7.91,5.74 13.42,5.74s10.44,-2.09 13.42,-5.74a1.17,1.17 0 0 0 -0.13,-1.64l-1,-0.88a13.56,13.56 0 0 0 3.29,-4.71l0.75,0a3.12,3.12 0 0 0 3.25,-3l0,-5.13a2.94,2.94 0 0 0 -1.91,-2.68l0,-6.19a2.75,2.75 0 0 0 1.93,-2.55z" class="cls-1"/>
     <path fill="#fff" d="m30.62,124.14578c0.92,-0.61 -1.5,-0.38 -1.7,-0.79a16.49,16.49 0 0 1 -2.86,-0.51c-1.7,-0.45 -5.78,-3.19 -6.22,-5.82s0,-7.62 1.84,-10.62a17.21,17.21 0 0 1 4.38,-4.7s-3.57,-8.49 -3.87,-14.9s0.2,-17.82 4.38,-18.02s3.57,10.48 2.86,17.43a90.59,90.59 0 0 0 -0.2,13.88a19.73,19.73 0 0 1 5.5,-0.92a21.12,21.12 0 0 1 4.9,0.46s1.33,-9.84 5.71,-16s9,-12.45 12,-10.66s-0.82,8.18 -3.47,11.51s-7.24,8.33 -8.77,11a46.59,46.59 0 0 0 -2.65,5.51a14.93,14.93 0 0 1 6.39,6.32c2.16,4.31 2.32,9.61 1.16,11.86a8.08,8.08 0 0 1 -5.61,4c-1.33,0.06 -6.92,1.45 -6.92,1.45l-6.85,-0.48z" class="cls-2"/>
     <path fill="#dd00a1" d="m40.41,99.72578s3.34,-8.71 6.33,-13.6s7,-8.59 8.26,-7.84s-2.57,5.32 -5.93,9.81a113.44,113.44 0 0 0 -7.43,12.38l-1.23,-0.75z" class="cls-3"/>
     <path fill="#dd00a1" d="m27,101.21578l1,-0.74s-0.14,-8.71 0,-14s0.41,-11.9 -1.36,-11.84s-3,5.17 -2.31,12.38a87.47,87.47 0 0 0 2.67,14.2z" class="cls-3"/>
     <circle fill="#f9d8d2" r="1.94" cy="117.94578" cx="24.02" class="cls-4"/>
     <circle fill="#f9d8d2" r="1.94" cy="117.94578" cx="46.95" class="cls-4"/>
     <path fill="#10110e" d="m38.7,117.78578a0.18,0.18 0 0 0 -0.25,0.07s-0.58,1 -1.42,1.06a2.09,2.09 0 0 1 -1.5,-0.7l0,-1.48c0.54,-0.3 1.41,-1.2 1.41,-1.51a1.41,1.41 0 0 0 -1.49,-1.09c-1,0 -1.7,0.65 -1.7,1.19s1.1,1.24 1.41,1.44l0,1.46a1.82,1.82 0 0 1 -1.31,0.69c-0.79,0 -1.39,-1.08 -1.4,-1.09a0.19,0.19 0 0 0 -0.25,-0.08a0.2,0.2 0 0 0 -0.08,0.26s0.71,1.29 1.73,1.29a2.12,2.12 0 0 0 1.51,-0.73a2.37,2.37 0 0 0 1.58,0.73l0.12,0a2.49,2.49 0 0 0 1.71,-1.26a0.18,0.18 0 0 0 -0.07,-0.25z" class="cls-5"/>
     <path fill="#e5e5e5" d="m26.06,101.72578s-2.77,-7 -3.3,-10.66s-1,-9.77 -0.3,-13.84a50,50 0 0 1 1.22,-5.56s-1.29,9.49 -0.81,13.64s3.19,16.42 3.19,16.42z" class="cls-6"/>
     <path fill="#e5e5e5" d="m39.63,99.63578s2,-10.59 4.91,-14.75s6.52,-9.21 8.35,-10.48l1.83,-1.28s-7.34,7.7 -10.18,14s-4.91,12.51 -4.91,12.51z" class="cls-6"/>
     <path fill="#10110e" d="m28,111.63578a1.52,1.52 0 1 0 1.51,1.52a1.52,1.52 0 0 0 -1.51,-1.52zm0.43,1.41a0.41,0.41 0 0 1 -0.41,-0.41a0.41,0.41 0 0 1 0.82,0a0.41,0.41 0 0 1 -0.43,0.41l0.02,0z" class="cls-5"/>
     <path fill="#10110e" d="m42.92,111.63578a1.52,1.52 0 1 0 1.52,1.52a1.52,1.52 0 0 0 -1.52,-1.52zm0.43,1.41a0.42,0.42 0 0 1 -0.41,-0.41a0.42,0.42 0 0 1 0.83,0a0.42,0.42 0 0 1 -0.42,0.41z" class="cls-5"/>
     <ellipse opacity="0.2" fill="#8accce" ry="10.16" rx="14.1" cy="113.72578" cx="35.73" class="cls-7"/>
     <path fill="#fff" d="m52.8,108.07578l0,-6.67a2.45,2.45 0 0 0 1.92,-2.28a2.65,2.65 0 0 0 -5.27,0a2.44,2.44 0 0 0 1.91,2.28l0,6.5l-0.19,0c-2,-6.94 -7.91,-11.25 -15.62,-11.25s-13.66,4.27 -15.63,11.25l-0.67,0a2.75,2.75 0 0 0 -2.88,2.59l0,5.17a2.75,2.75 0 0 0 2.88,2.58l0.91,0a13.11,13.11 0 0 0 3.6,5.09l-1.3,1.16a0.79,0.79 0 0 0 -0.09,1.12c2.92,3.53 7.71,5.6 13.13,5.6s10.21,-2 13.13,-5.6a0.79,0.79 0 0 0 -0.09,-1.12l-1.3,-1.16a13.34,13.34 0 0 0 3.6,-5.09l1,0a2.75,2.75 0 0 0 2.88,-2.58l0,-5.17a2.62,2.62 0 0 0 -1.92,-2.42zm-17.25,-4.05c7.14,0 12.94,4.7 12.94,10.47c0,6.25 -6.52,9 -12.94,9s-12.94,-2.8 -12.94,-9c0,-5.77 5.8,-10.47 12.94,-10.47z" class="cls-2"/>
     <path fill="#515151" d="m53.28,113.93578l-1.92,0c0,-0.3 0,-0.6 0,-0.94a19.35,19.35 0 0 0 -0.38,-3.8l0.81,0a1.35,1.35 0 0 1 1.44,1.3l0.05,3.44z" class="cls-8"/>
     <path fill="#515151" d="m51.84,116.95578l-1,0a16.69,16.69 0 0 0 0.43,-2.15l2,0l0,0.86a1.34,1.34 0 0 1 -1.43,1.29z" class="cls-8"/>
     <path fill="#515151" d="m35.55,129.88578c-4.8,0 -9.06,-1.73 -11.75,-4.79l1.35,-1.2a17.86,17.86 0 0 0 10.4,3a17.89,17.89 0 0 0 10.4,-3l1.34,1.2c-2.68,3.06 -6.95,4.79 -11.74,4.79z" class="cls-8"/>
     <path fill="#515151" d="m19.25,109.19578l0.86,0a19.66,19.66 0 0 0 -0.38,3.8a6.18,6.18 0 0 0 0,0.94l-1.87,0l0,-3.44a1.28,1.28 0 0 1 1.39,-1.3z" class="cls-8"/>
     <path d="m35.55,103.16578a17.4,17.4 0 0 0 -4.8,0.69l0,-5.21a17.14,17.14 0 0 1 4.8,-0.65a17.12,17.12 0 0 1 4.79,0.65l0,5.25a16,16 0 0 0 -4.79,-0.73z"/>
     <path fill="#515151" d="m29.8,98.94578l0,5.26c-4.8,1.76 -8.15,5.73 -8.15,10.29c0,5.91 5.61,9.91 13.9,9.91s13.9,-4 13.9,-9.91c0,-4.56 -3.36,-8.53 -8.15,-10.29l0,-5.26c5.61,2 9.11,7.19 9.11,14.09c0,7.76 -5.95,13 -14.86,13s-14.86,-5.21 -14.86,-13c0,-6.9 3.5,-12.07 9.11,-14.09z" class="cls-8"/>
     <path fill="#515151" d="m17.81,114.80578l2,0a15.15,15.15 0 0 0 0.43,2.15l-1,0a1.35,1.35 0 0 1 -1.44,-1.29l0.01,-0.86z" class="cls-8"/>
     <ellipse fill="#515151" ry="1.08" rx="1.2" cy="99.07578" cx="52.08" class="cls-8"/>
     <path d="m79.74,105.18578l-5.82,0l0,-5.3a1.4,1.4 0 0 0 -1.4,-1.4l-0.05,0a1.4,1.4 0 0 0 -1.4,1.4l0,5.3l-1.7,0a1.36,1.36 0 0 0 -1.37,1.36l0,0a1.36,1.36 0 0 0 1.36,1.36l1.7,0l0,12.69a6.51,6.51 0 0 0 1.55,4.61a5.81,5.81 0 0 0 4.45,1.7a8.11,8.11 0 0 0 3.4,-0.73a1,1 0 0 0 0.54,-0.89l0,-0.88a1,1 0 0 0 -1.45,-0.89a5.53,5.53 0 0 1 -2.49,0.59a2.93,2.93 0 0 1 -2.36,-0.85a4.19,4.19 0 0 1 -0.79,-2.76l0,-12.57l5.82,0a1.34,1.34 0 0 0 1.35,-1.35l0,0a1.34,1.34 0 0 0 -1.34,-1.39z"/>
     <path d="m94.29,104.72578a8.23,8.23 0 0 0 -3.29,0.68a9.19,9.19 0 0 0 -2.6,1.72a9.91,9.91 0 0 0 -1,1.12l0,-1.65a1.41,1.41 0 0 0 -1.41,-1.41l0,0a1.41,1.41 0 0 0 -1.41,1.41l0,18.55a1.41,1.41 0 0 0 1.41,1.41l0,0a1.41,1.41 0 0 0 1.41,-1.41l0,-9.62a8.36,8.36 0 0 1 0.49,-2.66a9.61,9.61 0 0 1 1.4,-2.65a8.06,8.06 0 0 1 2.17,-2a5,5 0 0 1 2.73,-0.74l0.19,0a1,1 0 0 0 1,-1l0,-0.77a1,1 0 0 0 -1.09,-0.98z"/>
     <path d="m100.11,105.18578l0,0a1.42,1.42 0 0 0 -1.42,1.42l0,18.56a1.39,1.39 0 0 0 1.38,1.39l0.08,0a1.39,1.39 0 0 0 1.39,-1.39l0,-18.56a1.43,1.43 0 0 0 -1.43,-1.42z"/>
     <path d="m122.3,107.50578a7.84,7.84 0 0 0 -2.89,-2.1a9.82,9.82 0 0 0 -3.87,-0.72a8.82,8.82 0 0 0 -3.46,0.64a9,9 0 0 0 -2.58,1.61a8.15,8.15 0 0 0 -0.72,0.72l0,-1.1a1.41,1.41 0 0 0 -1.41,-1.41l0,0a1.41,1.41 0 0 0 -1.41,1.41l0,18.6a1.4,1.4 0 0 0 1.4,1.4l0.06,0a1.4,1.4 0 0 0 1.4,-1.4l0,-10.33a7.85,7.85 0 0 1 0.52,-2.89a7.44,7.44 0 0 1 1.45,-2.34a6.55,6.55 0 0 1 2.11,-1.55a6.15,6.15 0 0 1 2.58,-0.55a7.07,7.07 0 0 1 2.8,0.52a5.52,5.52 0 0 1 2,1.4a6,6 0 0 1 1.18,2.22a10.27,10.27 0 0 1 0.42,3l0,10.54a1.38,1.38 0 0 0 1.38,1.38l0.1,0a1.37,1.37 0 0 0 1.37,-1.38l0,-10.58a12.33,12.33 0 0 0 -0.59,-4a8.87,8.87 0 0 0 -1.84,-3.09z"/>
     <path d="m149.43,111.57578a10.63,10.63 0 0 0 -2.27,-3.55a11.5,11.5 0 0 0 -12.57,-2.38a10.74,10.74 0 0 0 -5.73,6a11.68,11.68 0 0 0 -0.78,4.29a11.53,11.53 0 0 0 0.78,4.24a10.75,10.75 0 0 0 2.27,3.53a11,11 0 0 0 8,3.3a11.2,11.2 0 0 0 4.55,-0.9a10.62,10.62 0 0 0 3.5,-2.43a11,11 0 0 0 2.24,-3.56a11.81,11.81 0 0 0 0.78,-4.33a11.61,11.61 0 0 0 -0.77,-4.21zm-10.25,12.67a8.15,8.15 0 0 1 -3.33,-0.66a7.94,7.94 0 0 1 -2.61,-1.79a8,8 0 0 1 -1.71,-2.66a8.81,8.81 0 0 1 -0.6,-3.3a9.05,9.05 0 0 1 0.59,-3.25a8.11,8.11 0 0 1 1.67,-2.65a7.9,7.9 0 0 1 2.58,-1.79a8.79,8.79 0 0 1 6.66,0a7.88,7.88 0 0 1 2.62,1.79a8.27,8.27 0 0 1 1.71,2.65a9.31,9.31 0 0 1 0,6.55a8,8 0 0 1 -1.67,2.66a7.94,7.94 0 0 1 -2.58,1.78a8.16,8.16 0 0 1 -3.33,0.67z"/>
     <circle r="1.62" cy="100.64578" cx="100.13"/>
    </g>
   </g>
  </g>
  <path transform="rotate(-180 200.891 100)" id="svg_10" d="m203.59919,96.93618c2.04255,0 4.08511,0 6.12766,0c0,2.04255 0,4.08511 0,6.12766c-2.04255,0 -4.08511,0 -6.12766,0c0,-2.04255 0,-4.08511 0,-6.12766zm-8.85107,0c2.26949,0 4.53902,0 6.80852,0c0,2.04255 0,4.08511 0,6.12766c-2.26949,0 -4.53902,0 -6.80852,0c0,-2.04255 0,-4.08511 0,-6.12766zm-8.17022,0c2.26949,0 4.53902,0 6.80851,0c0,2.04255 0,4.08511 0,6.12766c-2.26949,0 -4.53902,0 -6.80851,0c0,-2.04255 0,-4.08511 0,-6.12766zm-8.17022,0c2.26949,0 4.53902,0 6.80851,0c0,2.04255 0,4.08511 0,6.12766c-2.26949,0 -4.53902,0 -6.80851,0c0,-2.04255 0,-4.08511 0,-6.12766zm25.1915,12.63633c2.15604,-0.13835 4.31204,0.09775 6.46809,-0.0406c0.13834,-2.15603 0.07426,-4.31206 0.2126,-6.46809c2.0177,0 4.23782,0 6.25549,0c0,-2.04255 0,-4.08511 0,-6.12766c-2.04255,0 -4.08511,0 -6.12766,0c0,-2.26951 0,-4.53901 0,-6.80851c-2.26949,0 -4.53902,0 -6.80851,0c0,-2.04255 0,-4.08511 0,-6.12766c2.26949,0 4.53902,0 6.80851,0c0,2.04255 0,4.08511 0,6.12766c2.01766,0 4.23778,-0.10121 6.25549,-0.10121c0.13834,2.15602 0.07426,4.41326 0.2126,6.56929c2.15604,0.13834 4.34245,-0.01174 6.4985,0.12661c0,2.01769 -0.03041,4.32379 -0.03041,6.34148c-2.26949,0 -4.53902,0 -6.80851,0c0,2.26951 0,4.539 0,6.80851c-2.04255,0 -4.08511,0 -6.12766,0c0,2.04255 0,4.08511 0,6.12766c-2.26949,0 -4.53902,0 -6.80851,0c0,-2.01769 0,-4.4098 0,-6.42749l0,0z" stroke="null" fill="#007cc2"/>
 </g>

</svg>