<?xml version="1.0" encoding="utf-8"?>
<!-- Generator: Adobe Illustrator 19.2.1, SVG Export Plug-In . SVG Version: 6.00 Build 0)  -->
<svg version="1.1" id="layer" xmlns="http://www.w3.org/2000/svg" xmlns:xlink="http://www.w3.org/1999/xlink" x="0px" y="0px"
	 viewBox="0 0 652 652" style="enable-background:new 0 0 652 652;" xml:space="preserve">
<style type="text/css">
	.st0{fill-rule:evenodd;clip-rule:evenodd;fill:#F96702;}
</style>
<path class="st0" d="M297.1,330.4c0,11.1-6.4,17.8-15.3,17.8c-8.9,0-15.3-6.7-15.3-17.8v-39.1h-16.2v38.5c0,20.2,12.7,33,31.5,33
	c18.8,0,31.5-12.8,31.5-33v-38.5h-16.2V330.4z M599.4,334l-9.7-24.5L580,334H599.4z M626.6,361.2h-16.4l-5.7-14.3h-29.7l-5.7,14.3
	h-16.4l29.5-69.9h14.5L626.6,361.2z M530.6,315.5c0-3.1-1.2-6-3.1-7.6c-2.1-1.9-5.2-2.8-9.4-2.8h-15.5v21h15.5
	c4.2,0,7.1-0.9,9.2-2.7S530.6,318.6,530.6,315.5z M529,337.7l19.9,23.5h-18.8l-18.6-22.1h-8.9v22.1h-15.9v-69.9H519
	c9,0,15.6,2.2,20.3,6.2c4.7,4,7.5,10.3,7.5,17.7C546.8,324.5,542.8,334.1,529,337.7z M121.9,291.3h-16.2v69.9h49V347h-32.8V291.3z
	 M64,348.1c-12,0-20.6-9.4-20.6-21.8c0-12.4,8.7-21.8,20.6-21.8c5.7,0,10.5,2.1,14.7,6l10.4-10.4c-6.3-6.5-15.1-10.3-25.3-10.3
	c-21,0-37.3,16-37.3,36.5s16.2,36.5,37.3,36.5c10.6,0,19.9-4.3,26.3-11.5L79.7,341C75.6,345.6,70.6,348.1,64,348.1z M383.1,326.3
	c0-12.6-9.1-21-22.7-21h-10.7v42h10.7C373.9,347.3,383.1,338.9,383.1,326.3z M399.9,326.3c0,20.9-15.4,34.9-38.4,34.9h-28v-69.9
	h27.3C383.8,291.3,399.9,305.4,399.9,326.3z M217.7,326.4c0-12.7-8.4-22-20.1-22c-11.8,0-20.1,9.2-20.1,22s8.3,21.8,20.1,21.8
	C209.3,348.2,217.7,339,217.7,326.4z M234.5,326.4c0,20.4-15.5,36.4-36.9,36.4s-36.9-16-36.9-36.4c0-20.4,15.5-36.7,36.9-36.7
	S234.5,305.9,234.5,326.4z M407.2,361.2h60.5v-14.4h-51C414.6,352.2,411.3,357.1,407.2,361.2z M459.2,333.2v-14.3h-39
	c0.3,2.4,0.6,4.9,0.6,7.5c0,2.3-0.2,4.5-0.4,6.8H459.2z M406.5,291.3h61v14.4h-50.9C414.1,300.3,410.7,295.5,406.5,291.3z"/>
</svg>
