<?xml version="1.0" encoding="UTF-8"?>
<svg width="894px" height="144px" viewBox="0 0 894 144" version="1.1" xmlns="http://www.w3.org/2000/svg" xmlns:xlink="http://www.w3.org/1999/xlink">
    <title>公司logoNEW_svg</title>
    <g id="页面-1" stroke="none" stroke-width="1" fill="none" fill-rule="evenodd">
        <g id="公司logoNEW_svg" transform="translate(0.000000, 0.000000)" fill="#212021">
            <path d="M819.438691,9.98461481 C821.842691,9.98461481 823.694691,12.1058148 823.369691,14.4878148 L818.166691,54.2264148 C824.072691,49.7907148 829.198691,46.8222148 833.542691,45.3209148 C838.091691,43.7514148 843.013691,42.9666148 848.308691,42.9666148 C861.342691,42.9666148 872.102691,47.4705148 880.588691,56.4784148 C889.074691,65.4180148 893.317691,76.8143148 893.317691,90.6673148 C893.317691,105.885115 888.497691,118.544115 878.857691,128.643115 C869.149691,138.880115 857.303691,143.998115 843.318691,143.998115 C830.284691,143.998115 818.879691,138.948115 809.103691,128.848115 L807.912691,140.276115 C807.662691,142.259115 805.975691,143.746115 803.976691,143.746115 L789.488691,143.746115 C787.093691,143.746115 785.244691,141.640115 785.554691,139.265115 L801.446691,13.4389148 C801.704691,11.4629148 803.388691,9.98461481 805.380691,9.98461481 L819.438691,9.98461481 Z M870.710691,91.1791148 C870.710691,82.5807148 868.165691,75.5518148 863.073691,70.0925148 C857.982691,64.6332148 851.363691,61.9035148 843.216691,61.9035148 C834.391691,61.9035148 827.093691,65.1791148 821.323691,71.7303148 C815.552691,78.1450148 812.667691,86.4363148 812.667691,96.6043148 C812.667691,105.134115 815.145691,111.993115 820.101691,117.179115 C825.056691,122.502115 831.506691,125.163115 839.448691,125.163115 C848.206691,125.163115 855.572691,121.853115 861.546691,115.234115 C867.655691,108.615115 870.710691,100.596115 870.710691,91.1791148 Z" id="形状" fill-rule="nonzero"></path>
            <path d="M783.033691,45.3204148 C785.416691,45.3204148 787.261691,47.4054148 786.971691,49.7701148 L775.131691,140.260115 C774.887691,142.250115 773.197691,143.745115 771.193691,143.745115 L756.701691,143.745115 C754.312691,143.745115 752.465691,141.649115 752.766691,139.279115 L753.523691,131.304115 C743.883691,139.766115 733.904691,143.997115 723.585691,143.997115 C710.890691,143.997115 700.538691,139.664115 692.527691,130.997115 C684.516691,122.331115 680.511691,111.105115 680.511691,97.3203148 C680.511691,81.4201148 685.093691,68.3860148 694.258691,58.2180148 C703.559691,48.0501148 715.473691,42.9661148 730.000691,42.9661148 C736.857691,42.9661148 742.695691,44.0921148 747.515691,46.3440148 C752.403691,48.5960148 758.227691,52.6905148 763.318691,58.2180148 L764.591691,48.8137148 C764.831691,46.8203148 766.522691,45.3204148 768.530691,45.3204148 L783.033691,45.3204148 Z M759.124691,90.7691148 C759.124691,82.2390148 756.680691,75.3125148 751.792691,69.9896148 C746.904691,64.5986148 740.591691,61.9030148 732.852691,61.9030148 C724.434691,61.9030148 717.374691,65.2128148 711.671691,71.8322148 C705.969691,78.5198148 703.117691,86.7088148 703.117691,96.3990148 C703.117691,104.861115 705.493691,111.787115 710.245691,117.178115 C714.997691,122.569115 721.107691,125.265115 728.575691,125.265115 C736.857691,125.265115 744.019691,121.887115 750.061691,115.131115 C756.103691,108.239115 759.124691,100.118115 759.124691,90.7691148 Z" id="形状" fill-rule="nonzero"></path>
            <path d="M676.453691,10.1905148 C678.878691,10.1905148 680.735691,12.3467148 680.377691,14.7449148 L663.936691,140.618115 C663.645691,142.561115 661.977691,143.998115 660.012691,143.998115 L645.534691,143.998115 C643.108691,143.998115 641.250691,141.840115 641.611691,139.441115 L658.148691,13.5678148 C658.440691,11.6264148 660.108691,10.1905148 662.071691,10.1905148 L676.453691,10.1905148 Z" id="路径" fill-rule="nonzero"></path>
            <path d="M619.975691,68.5582148 L611.137691,140.515115 C610.892691,142.504115 609.203691,143.999115 607.199691,143.999115 L592.689691,143.999115 C590.306691,143.999115 588.461691,141.913115 588.751691,139.548115 L597.471691,68.5582148 L589.220691,68.5582148 C586.839691,68.5582148 584.995691,66.4763148 585.281691,64.1131148 L586.865691,51.0634148 C587.106691,49.0718148 588.797691,47.5740148 590.803691,47.5740148 L600.397691,47.5740148 L605.001691,13.5561148 C605.267691,11.5886148 606.947691,10.1209148 608.932691,10.1209148 L623.428691,10.1209148 C625.848691,10.1209148 627.704691,12.2696148 627.353691,14.6644148 L622.521691,47.5740148 L638.817691,47.5740148 C641.197691,47.5740148 643.042691,49.6558148 642.755691,52.0190148 L641.172691,65.0687148 C640.930691,67.0604148 639.240691,68.5582148 637.234691,68.5582148 L619.975691,68.5582148 Z" id="路径" fill-rule="nonzero"></path>
            <path d="M534.662691,47.5747148 C537.045691,47.5747148 538.890691,49.6605148 538.600691,52.0256148 L538.128691,55.8660148 C545.731691,48.6324148 553.403691,45.0157148 561.142691,45.0157148 C566.784691,45.0157148 572.005691,46.7365148 576.803691,50.1781148 C578.492691,51.3893148 578.693691,53.7618148 577.424691,55.4079148 L567.868691,67.8082148 C566.481691,69.6077148 563.888691,69.8364148 561.962691,68.6316148 C558.939691,66.7406148 555.916691,65.7951148 552.893691,65.7951148 C550.042691,65.7951148 547.530691,66.3752148 545.358691,67.5353148 C543.186691,68.6271148 541.285691,70.4014148 539.656691,72.8581148 C538.094691,75.2465148 536.770691,78.3515148 535.684691,82.1730148 C534.666691,85.9946148 533.851691,90.5667148 533.240691,95.8895148 L527.762691,140.516115 C527.518691,142.505115 525.828691,144.000115 523.824691,144.000115 L509.313691,144.000115 C506.930691,144.000115 505.085691,141.915115 505.375691,139.550115 L516.215691,51.0596148 C516.459691,49.0699148 518.148691,47.5747148 520.153691,47.5747148 L534.662691,47.5747148 Z" id="路径" fill-rule="nonzero"></path>
            <path d="M427.037691,100.802115 C427.037691,107.899115 429.481691,113.734115 434.369691,118.306115 C439.324691,122.878115 445.638691,125.164115 453.309691,125.164115 C462.524691,125.164115 469.865691,122.128115 475.332691,116.057115 C476.683691,114.556115 478.879691,114.030115 480.645691,115.009115 L490.397691,120.415115 C492.491691,121.576115 493.095691,124.320115 491.574691,126.169115 C486.611691,132.204115 481.527691,136.543115 476.323691,139.188115 C470.077691,142.395115 462.270691,143.999115 452.902691,143.999115 C438.035691,143.999115 426.188691,139.597115 417.363691,130.794115 C408.538691,121.991115 404.125691,110.219115 404.125691,95.4791148 C404.125691,80.0566148 408.979691,67.1589148 418.687691,56.7863148 C428.327691,46.4818148 440.512691,41.3296148 455.244691,41.3296148 C469.500691,41.3296148 480.735691,45.9700148 488.950691,55.2508148 C497.300691,64.5999148 501.475691,77.1222148 501.475691,92.8177148 C501.475691,94.4555148 501.373691,97.1169148 501.169691,100.802115 L427.037691,100.802115 Z M478.665691,82.5815148 C476.289691,67.7049148 468.108691,60.2666148 454.124691,60.2666148 C440.886691,60.2666148 432.264691,67.7049148 428.259691,82.5815148 L478.665691,82.5815148 Z" id="形状" fill-rule="nonzero"></path>
            <path d="M403.874691,48.1277148 C407.066691,48.1277148 408.951691,51.8814148 407.146691,54.6434148 L349.937691,142.187115 C348.104691,144.993115 344.009691,144.431115 342.926691,141.224115 L313.350691,53.6804148 C312.435691,50.9714148 314.350691,48.1277148 317.090691,48.1277148 L331.912691,48.1277148 C333.660691,48.1277148 335.202691,49.3280148 335.709691,51.0832148 L351.324691,100.459115 L384.517691,50.0661148 C385.244691,48.8594148 386.510691,48.1277148 387.870691,48.1277148 L403.874691,48.1277148 Z" id="路径" fill-rule="nonzero"></path>
            <path d="M246.846691,47.5753148 C249.216691,47.5753148 251.057691,49.6390148 250.788691,51.9933148 L250.275691,56.4808148 C259.168691,48.9742148 268.163691,45.2210148 277.260691,45.2210148 C286.628691,45.2210148 294.129691,47.8483148 299.764691,53.1028148 C305.263691,58.3574148 308.012691,65.5228148 308.012691,74.5989148 C308.012691,79.5122148 307.605691,85.3810148 306.790691,92.2051148 L300.806691,140.521115 C300.560691,142.508115 298.871691,144.000115 296.869691,144.000115 L282.454691,144.000115 C280.072691,144.000115 278.227691,141.916115 278.516691,139.552115 L284.897691,87.2917148 C285.168691,85.1763148 285.338691,83.2996148 285.406691,81.6618148 C285.542691,80.0240148 285.610691,78.5568148 285.610691,77.2603148 C285.610691,68.5254148 280.925691,64.1579148 271.557691,64.1579148 C265.787691,64.1579148 260.831691,65.9322148 256.690691,69.4808148 C253.296691,72.2787148 250.784691,75.6907148 249.154691,79.7170148 C248.272691,81.7642148 247.525691,84.2891148 246.914691,87.2917148 C246.303691,90.2261148 245.760691,93.6382148 245.285691,97.5279148 L240.010691,140.516115 C239.766691,142.505115 238.076691,144.000115 236.072691,144.000115 L221.561691,144.000115 C219.179691,144.000115 217.333691,141.915115 217.623691,139.550115 L228.463691,51.0602148 C228.707691,49.0705148 230.397691,47.5753148 232.401691,47.5753148 L246.846691,47.5753148 Z" id="路径" fill-rule="nonzero"></path>
            <path d="M212.947691,91.7950148 C212.947691,106.535115 207.856691,118.921115 197.673691,128.952115 C187.557691,138.984115 175.066691,144.000115 160.199691,144.000115 C144.653691,144.000115 131.958691,139.257115 122.115691,129.771115 C112.203691,120.217115 107.247691,108.139115 107.247691,93.5352148 C107.247691,78.5903148 112.373691,66.1704148 122.624691,56.2754148 C132.942691,46.3122148 145.841691,41.3306148 161.319691,41.3306148 C176.526691,41.3306148 188.915691,46.0392148 198.487691,55.4565148 C208.127691,64.7374148 212.947691,76.8502148 212.947691,91.7950148 Z M190.239691,90.6691148 C190.239691,81.3882148 187.557691,74.0523148 182.194691,68.6612148 C176.831691,63.0654148 169.805691,60.2676148 161.116691,60.2676148 C152.087691,60.2676148 144.619691,63.3725148 138.713691,69.5825148 C132.807691,75.8607148 129.854691,83.7426148 129.854691,93.2281148 C129.854691,102.782115 132.637691,110.459115 138.204691,116.259115 C143.770691,122.196115 150.966691,125.165115 159.792691,125.165115 C168.617691,125.165115 175.881691,121.923115 181.583691,115.441115 C187.354691,109.026115 190.239691,100.769115 190.239691,90.6691148 Z" id="形状" fill-rule="nonzero"></path>
            <path d="M36.1212915,35.7251148 L36.1164915,35.7305148 C27.3123915,45.5007148 22.7638915,58.3625148 22.5620915,74.4272148 C22.3735915,89.4342148 26.4352915,101.050115 34.6113915,109.435115 C42.7241915,117.754115 54.3477915,122.084115 69.6577915,122.276115 C80.3272915,122.410115 88.7841915,119.526115 97.0635915,114.000115 C99.5822915,112.319115 103.216691,114.281115 102.788691,117.467115 L100.742691,132.674115 C100.449691,134.851115 98.9633915,136.698115 96.8711915,137.416115 C85.5173915,141.315115 76.0619915,143.518115 65.8765915,143.390115 C45.9197915,143.140115 29.8289915,136.600115 17.7254915,123.705115 C5.62037149,110.928115 -0.25303031,94.0724148 0.00835149037,73.2648148 C0.27509849,52.0302148 6.97172149,34.4142148 20.1453915,20.5074148 L20.1471915,20.5055148 C33.3847915,6.59493481 49.9013915,-0.24110619 69.6114915,0.00649081021 C84.3231915,0.19129581 98.8846915,4.88132481 113.281691,14.0116148 C115.200691,15.2288148 116.181691,17.4577148 115.877691,19.6761148 L113.933691,33.8915148 C113.528691,36.8494148 109.938691,37.9345148 107.836691,36.0321148 C97.1497915,26.3608148 84.6291915,21.4450148 70.2234915,21.2640148 C56.1848915,21.0877148 44.8542915,25.9137148 36.1212915,35.7251148 Z" id="路径"></path>
        </g>
    </g>
</svg>