<svg width="384" height="200" xmlns="http://www.w3.org/2000/svg" p-id="13219" version="1.1" class="icon" t="1648392852481">
 <g id="Layer_1">
  <title>Layer 1</title>
  <g stroke="null">
   <path stroke="null" d="m52.95035,137.66508c-3.12616,0.63141 -6.45437,3.13739 -7.87714,5.87629s-1.44522,3.40959 -1.44522,14.92925l0.25817,12.01075c0.91764,4.68644 4.5826,8.3542 9.27185,9.27185c1.41996,0.25817 19.91314,0.38726 19.91314,0.10383c0,-0.20766 -1.5715,-6.40386 -1.68375,-6.45437c-0.02806,-0.05051 -3.30576,-0.77452 -7.28222,-1.62762c-9.27185,-2.01489 -8.98842,-1.96437 -9.76575,-2.86799l-0.6735,-0.79978l0,-18.75136l0.6735,-0.84187c0.77452,-0.92606 0.49109,-0.8531 9.76575,-2.86799l7.28222,-1.62762c0.07857,-0.07857 1.68375,-6.27477 1.68375,-6.45437c0,-0.24414 -18.88044,-0.12909 -20.12081,0.12909l0,-0.02806zm29.93426,0.03929c0.02806,0.46584 1.47328,6.17375 1.62762,6.30284c0.05051,0.07857 3.592,0.87836 7.8575,1.78197l8.34298,2.01489a3.17106,3.17106 0 0 1 1.11127,1.08602c0.41252,0.72401 0.46584,1.49854 0.46584,9.81345l-0.46584,9.81345a3.39556,3.39556 0 0 1 -1.11127,1.08602c-0.33675,0.1796 -4.08029,1.08602 -8.34298,2.01489l-7.8575,1.78197a69.70723,69.70723 0 0 0 -1.62762,6.30284c0,0.28062 1.86054,0.33675 10.01831,0.25817c11.26148,-0.10383 11.39337,-0.12909 14.25575,-2.0654a11.78625,11.78625 0 0 0 4.44229,-5.81174c0.59492,-1.73146 0.59492,-1.8858 0.59492,-13.37739l-0.59492,-13.38581a11.78625,11.78625 0 0 0 -4.44229,-5.81174c-2.86799,-1.96437 -2.99707,-1.96437 -14.25575,-2.0654c-8.16057,-0.07857 -10.01831,-0.03929 -10.01831,0.25817l0,0.00281zm48.06263,8.78356c-1.78197,3.71828 -3.56394,8.31492 -5.39642,13.89093l-3.66777,12.57761c0.68753,0.06735 1.40312,0.09261 2.0654,0.07857l2.04014,0l0.28062,-1.11127l1.01025,-3.53587l0.69595,-2.45266l14.17998,0l0.72401,2.58175l0.98219,3.53587l0.25817,0.98219l2.04014,0l2.0654,-0.07857c0,-0.05051 -0.51635,-1.96437 -1.16179,-4.28795c-2.34883,-8.49732 -5.3459,-16.83749 -7.87714,-22.10763l-1.347,-2.71084l-5.62934,0l-1.26281,2.63787zm6.11762,5.1635l3.66777,9.91728c0,0.05051 -2.52562,0.10383 -5.68265,0.10383s-5.68265,-0.10383 -5.68265,-0.20766c0,-0.43777 2.60981,-7.38605 3.87262,-10.38312c0.98219,-2.30112 1.47328,-3.12616 1.80722,-3.12616s0.8531,0.95412 2.01489,3.66777l0.00281,0.02806zm13.7394,6.79112l0,14.5925l4.1336,0l0,-29.18499l-4.1336,0l0,14.5925zm9.2971,-14.25575a3.3675,3.3675 0 0 0 -1.13653,1.29087c-0.41252,0.87836 -0.43777,1.08602 -0.10383,1.96437c0.449,1.29649 1.8409,2.00366 3.15142,1.59956c1.29087,-0.41252 1.83248,-1.16179 1.83248,-2.50598c0,-0.98219 -0.12909,-1.26281 -0.8531,-1.90825c-0.90361,-0.79978 -1.83248,-0.95412 -2.89044,-0.41252l0,-0.02806zm7.49269,14.20523l0,14.5925l3.17667,0.23292l5.99134,0.23292c2.60981,0 2.96901,-0.05051 4.33846,-0.74927c1.61359,-0.72962 2.82309,-2.14117 3.30576,-3.84456c0.15434,-0.61737 0.23292,-3.35627 0.1796,-7.09981c-0.07857,-5.75842 -0.10383,-6.17375 -0.64544,-7.20645c-1.01025,-1.86054 -2.53124,-2.76416 -5.3459,-3.15142c-1.49854,-0.20766 -5.21962,0 -6.35335,0.36481c-0.49109,0.15434 -0.51635,0.05051 -0.51635,-3.84456l0,-4.05784l-4.1336,0l0.00281,14.53076zm11.74977,-2.78941a2.10469,2.10469 0 0 1 1.16179,1.0327c0.33675,0.87836 0.33675,10.48695 0,11.33725c-0.38726,1.05796 -1.68375,1.54905 -4.1336,1.54905a23.76893,23.76893 0 0 1 -3.40959,-0.20766l-1.24036,-0.1796l0,-13.35213l1.49854,-0.25817c2.30112,-0.38726 5.11299,-0.36481 6.11762,0.07857l0.00561,0zm29.31408,2.81467l0,14.5925l2.53124,0.12909l5.26733,0.33675c3.53587,0.20766 5.75842,-0.36481 7.20645,-1.8858c1.86054,-1.90825 1.90825,-2.14397 1.96437,-8.65167c0.07857,-4.72572 0.02806,-6.17375 -0.28062,-7.2317c-0.69595,-2.42741 -2.71084,-3.9512 -5.78649,-4.3132c-1.54905,-0.1796 -5.60408,0.02806 -6.43192,0.36481c-0.25817,0.07857 -0.33675,-0.79978 -0.33675,-3.87262l0,-4.00452l-4.1336,0l0,14.53637zm11.59542,-2.93253c0.43777,0.15434 0.92606,0.49109 1.05796,0.74927c0.28062,0.51635 0.36481,11.30918 0.10383,12.01075c-0.43777,1.13653 -3.92875,1.62762 -7.38605,1.05796l-1.24036,-0.1796l0,-13.3353l1.49854,-0.25817c2.0654,-0.33675 4.9839,-0.36481 5.96609,-0.03929l0,-0.00561zm41.03859,-11.37653c-2.58175,0.46584 -3.92875,1.08602 -5.24207,2.42741c-2.0654,2.0654 -2.19449,2.81467 -2.19449,12.16509s0.12909,10.09688 2.245,12.19035c1.08602,1.11127 1.68375,1.44522 3.22719,1.96437c1.68375,0.51635 2.45266,0.59492 5.91557,0.59492c2.99707,0 4.54612,-0.12909 6.09517,-0.49109a17.23037,17.23037 0 0 0 2.42741,-0.67069c0.20766,-0.12909 0.1796,-0.59492 -0.12909,-1.83248a11.25306,11.25306 0 0 0 -0.59492,-1.83248c-0.10383,-0.10383 -0.74927,-0.02806 -1.41996,0.1796c-2.30112,0.69595 -6.32809,0.98219 -8.83407,0.6735s-3.43485,-0.72401 -4.20937,-1.73146c-0.51635,-0.6735 -0.54161,-0.95412 -0.54161,-9.01367s0.02806,-8.34298 0.54161,-9.01367c0.79978,-1.01025 1.70339,-1.39471 4.20937,-1.73146s6.53295,-0.02806 8.83407,0.6735l1.39471,0.38726c0.20766,0 1.11127,-3.592 0.95412,-3.74354c-0.07857,-0.07857 -1.0327,-0.36481 -2.16923,-0.6735c-2.245,-0.59492 -8.34298,-0.87836 -10.48695,-0.49109l-0.02245,-0.03087zm16.32115,14.33432l0,14.5925l3.87262,0l0,-29.18499l-3.87262,0l0,14.5925zm58.65061,-10.71987l0,3.87262l-1.47328,-0.15434l-2.0654,-0.25817c-0.87836,-0.15434 -4.1336,0.36481 -5.06247,0.82784a6.93144,6.93144 0 0 0 -2.83992,2.81467c-0.51635,0.95412 -0.56686,1.49854 -0.64544,6.735c-0.10383,7.0493 0.10383,8.082 1.96437,9.91728c1.67814,1.62762 3.66777,2.16923 7.0493,1.96437l4.8043,-0.28062l2.37689,-0.15434l0,-29.12887l-4.1308,0l0.02245,3.84456zm-0.43777,7.87714c0.41252,0.1796 0.43777,0.74927 0.43777,6.8697l0,6.66204l-0.95412,0.1796c-1.68375,0.33675 -4.8043,0.25817 -5.70791,-0.12909c-0.46584,-0.20766 -0.95412,-0.56686 -1.08602,-0.82784s-0.25817,-2.99707 -0.25817,-6.09517c0,-6.17375 0.05051,-6.35335 1.41996,-6.79112c0.82784,-0.25817 5.37116,-0.15434 6.17375,0.12909l-0.02526,0.00281zm-141.60333,-4.24585a33.19793,33.19793 0 0 0 -3.43485,0.64544c-1.39471,0.33675 -1.73146,0.51635 -1.62762,0.8531c0.07857,0.23292 0.25817,0.98219 0.43777,1.70339s0.36481,1.36945 0.46584,1.44522s1.21511,-0.05051 2.48072,-0.28062c4.3132,-0.90361 7.2317,-0.49109 7.64422,1.05796a11.98268,11.98268 0 0 1 0.20766,2.09066l0.02806,1.44522l-2.45266,-0.12909c-6.56101,-0.33675 -10.51221,2.11872 -10.56272,6.53295c-0.02806,2.09066 0.64544,3.71828 2.04014,5.00915c1.62762,1.49854 3.35627,1.96437 6.6901,1.73146l5.39642,-0.28062l2.78941,-0.1796l-0.15434,-17.35665l-0.72401,-1.21511c-1.44522,-2.44144 -4.88287,-3.57797 -9.22133,-3.02233l-0.00281,-0.05051zm6.0166,13.0687c0.25817,0.15434 0.23292,4.72572 -0.02806,4.72572c-0.12909,0 -1.44522,0.12909 -2.94656,0.28062c-4.3132,0.41252 -5.88751,-0.23292 -5.88751,-2.45266c0,-0.95412 0.12909,-1.24036 0.77452,-1.80722c0.56125,-0.43497 1.28526,-0.70998 2.01489,-0.79978l1.59956,-0.25817c0.46584,-0.10383 4.20937,0.14031 4.46755,0.32272l0.00561,-0.01122zm35.17633,-13.10518l-3.43485,0.6735c-1.73146,0.41252 -1.8858,0.51635 -1.75671,1.01025l0.46584,1.90825c0.28062,1.29087 0.33675,1.36945 0.95412,1.21511c3.46011,-0.90361 6.79112,-1.16179 8.13812,-0.6735c1.21511,0.46584 1.47328,0.98219 1.47328,2.94656l0,1.86054l-3.20474,0c-4.05503,0 -5.91557,0.51635 -7.69754,2.11872a5.75281,5.75281 0 0 0 -1.98963,5.1663c0.43777,4.20937 3.43485,6.24952 8.80601,5.91557l5.39642,-0.28062l2.78941,-0.1796l-0.07857,-8.54783c-0.07857,-8.21389 -0.10383,-8.60115 -0.64544,-9.6086c-1.47328,-2.76416 -4.8043,-4.00452 -9.24659,-3.48536l0.03087,-0.03929zm5.11299,12.90875l0.69595,0l0,4.88287l-1.47328,0.1796c-2.83992,0.36481 -5.60408,0.28062 -6.32809,-0.20766c-1.44522,-0.95412 -1.39471,-3.46011 0.07857,-4.20937c1.01025,-0.51635 3.40959,-0.87836 5.00915,-0.72401l2.01489,0.10383l0.00281,-0.02526zm50.05226,-12.91436a7.21206,7.21206 0 0 0 -4.00452,2.42741c-1.31894,1.73146 -1.44522,2.58175 -1.44522,8.78356c0,6.35335 0.1796,7.09981 1.8858,8.88458c1.68375,1.73146 2.48072,1.96437 6.3786,1.96437c4.00452,0 4.91094,-0.28062 6.56101,-2.245c1.5715,-1.86054 1.75671,-2.78941 1.68375,-9.32236c-0.07857,-5.32065 -0.12909,-5.837 -0.64544,-6.81919a7.74525,7.74525 0 0 0 -3.38434,-3.25525c-1.31894,-0.59492 -5.19156,-0.8531 -6.99879,-0.46584l-0.03087,0.04771zm5.68265,4.28795c1.31894,0.6735 1.52379,1.59956 1.52379,6.6901c0,4.82675 -0.1796,5.73317 -1.29087,6.71535c-0.79978,0.72401 -4.44229,0.90361 -5.75842,0.25817c-1.54905,-0.72401 -1.73146,-1.47328 -1.73146,-6.97353c0,-5.26733 0.15434,-5.96609 1.49854,-6.6901c0.98219,-0.54161 4.72572,-0.54161 5.75842,0zm-136.90848,6.6901l0,10.71987l3.87262,0l0,-21.43974l-3.87262,0l0,10.71987zm145.50402,-10.38312c-0.07857,0.20766 -0.10383,4.08029 -0.05051,8.60115c0.07857,7.43656 0.12909,8.31492 0.56686,9.14276c1.52379,2.86799 4.10554,4.05503 8.31492,3.7716l7.34115,-0.44058l0,-21.38362l-3.92875,0l0,17.53906l-1.21511,0.1796c-2.245,0.36481 -5.03722,0.23292 -5.94083,-0.23292l-0.90361,-0.51635c-0.02806,-0.02806 -0.12909,-3.82211 -0.20766,-8.41875l-0.12909,-8.41875l-1.8858,-0.07857c-1.41996,-0.05051 -1.90825,0 -2.01489,0.28062l0.05332,-0.02526zm-233.49957,6.24952a1.82406,1.82406 0 0 0 -0.05051,0.8531c0.07857,0.43777 0.54161,0.46584 6.61152,0.54161l6.5105,0.05051l0,-1.80722l-6.45437,0c-5.39642,0 -6.5105,0.05051 -6.61152,0.36481l-0.00561,-0.00281z"/>
  </g>
  <g stroke="null">
   <title stroke="null">公司logoNEW_svg</title>
   <g stroke="null" fill-rule="evenodd" fill="none" id="svg_1">
    <g stroke="null" fill="#212021" id="svg_2">
     <path stroke="null" fill-rule="nonzero" id="svg_4" d="m269.33276,26.07124c0.49871,0 0.8829,0.44004 0.81548,0.93418l-1.07936,8.24373c1.22519,-0.92018 2.28858,-1.53599 3.18973,-1.84744c0.94368,-0.32559 1.96475,-0.4884 3.06319,-0.4884c2.70389,0 4.93604,0.93433 6.69645,2.80301c1.76041,1.85451 2.64062,4.21866 2.64062,7.09245c0,3.15692 -0.9999,5.78301 -2.99971,7.87804c-2.01391,2.12365 -4.47135,3.18538 -7.37253,3.18538c-2.70389,0 -5.06984,-1.04762 -7.09786,-3.14285l-0.24707,2.37073c-0.05186,0.41137 -0.40183,0.71985 -0.81652,0.71985l-3.00552,0c-0.49684,0 -0.88041,-0.43689 -0.8161,-0.92958l3.29678,-26.10251c0.05352,-0.40992 0.40287,-0.71659 0.8161,-0.71659l2.91632,0zm10.63632,16.84371c0,-1.78373 -0.52796,-3.24187 -1.58429,-4.37439c-1.05612,-1.13253 -2.42923,-1.6988 -4.11931,-1.6988c-1.83074,0 -3.3447,0.67952 -4.54168,2.03856c-1.19719,1.33072 -1.79568,3.05074 -1.79568,5.16008c0,1.7695 0.51406,3.19239 1.54217,4.26822c1.02791,1.10425 2.36595,1.65627 4.01351,1.65627c1.81684,0 3.34491,-0.68666 4.58421,-2.05976c1.26731,-1.3731 1.90106,-3.03664 1.90106,-4.99018z"/>
     <path stroke="null" fill-rule="nonzero" id="形状" d="m261.78058,33.40161c0.49435,0 0.87709,0.43253 0.81693,0.92309l-2.45619,18.77205c-0.05062,0.41282 -0.40121,0.72296 -0.81693,0.72296l-3.00635,0c-0.4956,0 -0.87875,-0.43481 -0.81631,-0.92647l0.15704,-1.6544c-1.99981,1.75543 -4.06994,2.63315 -6.2106,2.63315c-2.63356,0 -4.78107,-0.89888 -6.44295,-2.69684c-1.66187,-1.79775 -2.49271,-4.12658 -2.49271,-6.98622c0,-3.29848 0.95053,-6.00239 2.8518,-8.11173c1.92948,-2.10932 4.40103,-3.16399 7.41464,-3.16399c1.42248,0 2.63356,0.23359 3.63347,0.70074c1.01401,0.46717 2.22219,1.31657 3.27831,2.46325l0.26408,-1.95091c0.04979,-0.41353 0.40058,-0.72468 0.81714,-0.72468l3.00863,0zm-4.9599,9.42828c0,-1.76956 -0.50701,-3.20645 -1.52102,-4.31068c-1.01401,-1.11836 -2.32363,-1.67756 -3.92908,-1.67756c-1.7463,0 -3.21089,0.68661 -4.39397,2.0598c-1.18287,1.38734 -1.77452,3.08613 -1.77452,5.09636c0,1.75545 0.4929,3.19225 1.4787,4.3106c0.9858,1.11835 2.25331,1.67764 3.80254,1.67764c1.71809,0 3.20384,-0.70076 4.45725,-2.10229c1.25341,-1.42974 1.88011,-3.11443 1.88011,-5.05387z"/>
     <path stroke="null" fill-rule="nonzero" id="svg_3" d="m239.67068,26.11395c0.50306,0 0.8883,0.4473 0.81403,0.94481l-3.41067,26.11225c-0.06037,0.40308 -0.40639,0.70118 -0.81403,0.70118l-3.00344,0c-0.50327,0 -0.88871,-0.44768 -0.81382,-0.94535l3.43058,-26.11227c0.06058,-0.40274 0.4066,-0.70062 0.81382,-0.70062l2.98353,0z"/>
     <path stroke="null" fill-rule="nonzero" id="路径" d="m227.95438,38.22227l-1.83343,14.92738c-0.05082,0.41262 -0.40121,0.72275 -0.81693,0.72275l-3.01008,0c-0.49435,0 -0.87709,-0.43274 -0.81693,-0.92335l1.80895,-14.72677l-1.71166,0c-0.49394,0 -0.87647,-0.43189 -0.81714,-0.92213l0.3286,-2.70715c0.05,-0.41316 0.40079,-0.72387 0.81693,-0.72387l1.99026,0l0.95509,-7.05698c0.05518,-0.40816 0.4037,-0.71263 0.81548,-0.71263l3.00718,0c0.50203,0 0.88705,0.44575 0.81424,0.94254l-1.00239,6.82706l3.38059,0c0.49373,0 0.87647,0.43187 0.81693,0.92211l-0.32839,2.70715c-0.0502,0.41318 -0.40079,0.72389 -0.81693,0.72389l-3.58036,0z"/>
     <path stroke="null" fill-rule="nonzero" id="路径" d="m210.2563,33.86926c0.49435,0 0.87709,0.4327 0.81693,0.92333l-0.09792,0.79669c1.57723,-1.5006 3.16878,-2.25088 4.77423,-2.25088c1.17043,0 2.25352,0.35698 3.24886,1.07093c0.35038,0.25126 0.39208,0.74343 0.12883,1.08492l-1.98238,2.57243c-0.28773,0.3733 -0.82565,0.42075 -1.22519,0.17081c-0.62712,-0.39229 -1.25424,-0.58843 -1.88135,-0.58843c-0.59144,0 -1.11255,0.12034 -1.56313,0.361c-0.45058,0.22649 -0.84494,0.59457 -1.18287,1.10421c-0.32404,0.49547 -0.5987,1.1396 -0.82399,1.93237c-0.21118,0.79279 -0.38025,1.74126 -0.50701,2.84547l-1.1364,9.25774c-0.05062,0.41261 -0.40121,0.72275 -0.81693,0.72275l-3.01029,0c-0.49435,0 -0.87709,-0.43253 -0.81693,-0.92315l2.24875,-18.35726c0.05062,-0.41276 0.401,-0.72294 0.81693,-0.72294l3.00988,0z"/>
     <path stroke="null" fill-rule="nonzero" id="形状" d="m187.92961,44.91123c0,1.47226 0.50701,2.68273 1.52102,3.63119c1.02791,0.94845 2.33774,1.42268 3.92908,1.42268c1.91164,0 3.43452,-0.62981 4.56865,-1.88924c0.28026,-0.31138 0.73582,-0.4205 1.10218,-0.21741l2.02304,1.12147c0.4344,0.24085 0.5597,0.81009 0.24417,1.19366c-1.02957,1.25195 -2.08424,2.15207 -3.1638,2.70078c-1.29573,0.66529 -2.91528,0.99803 -4.85866,0.99803c-3.08414,0 -5.54179,-0.91319 -7.37253,-2.73936c-1.83074,-1.82617 -2.74621,-4.26826 -2.74621,-7.32606c0,-3.19938 1.00696,-5.87499 3.02087,-8.02678c1.99981,-2.13766 4.52757,-3.20648 7.58371,-3.20648c2.95739,0 5.28808,0.96265 6.99227,2.88794c1.7322,1.93946 2.5983,4.5372 2.5983,7.79321c0,0.33976 -0.02116,0.89186 -0.06348,1.65636l-15.3786,0zm10.71017,-3.77985c-0.4929,-3.08613 -2.19004,-4.6292 -5.091,-4.6292c-2.74621,0 -4.53483,1.54307 -5.36567,4.6292l10.45667,0z"/>
     <path stroke="null" fill-rule="nonzero" id="路径" d="m183.12447,33.98398c0.66218,0 1.05322,0.7787 0.67877,1.35167l-11.86794,18.16084c-0.38025,0.5821 -1.22976,0.46552 -1.45442,-0.19977l-6.13551,-18.16084c-0.18982,-0.56198 0.20745,-1.1519 0.77586,-1.1519l3.07481,0c0.36262,0 0.68251,0.249 0.78768,0.61312l3.23931,10.24297l6.88585,-10.45397c0.15082,-0.25033 0.41345,-0.40212 0.69558,-0.40212l3.32001,0z"/>
     <path stroke="null" fill-rule="nonzero" id="路径" d="m150.54919,33.86939c0.49165,0 0.87357,0.42811 0.81776,0.91651l-0.10642,0.93093c1.84484,-1.55724 3.71085,-2.33583 5.59801,-2.33583c1.94338,0 3.49946,0.54503 4.66843,1.63507c1.14076,1.09006 1.71104,2.57652 1.71104,4.45934c0,1.01926 -0.08443,2.23673 -0.2535,3.65239l-1.24137,10.0231c-0.05103,0.4122 -0.40141,0.72171 -0.81673,0.72171l-2.99038,0c-0.49414,0 -0.87689,-0.43232 -0.81693,-0.92273l1.32373,-10.84136c0.05622,-0.43884 0.09148,-0.82816 0.10559,-1.16792c0.02821,-0.33976 0.04232,-0.64413 0.04232,-0.91309c0,-1.81205 -0.9719,-2.71808 -2.91528,-2.71808c-1.19698,0 -2.2251,0.36808 -3.08414,1.10423c-0.70408,0.58042 -1.22519,1.28824 -1.56333,2.12349c-0.18297,0.42469 -0.33793,0.94848 -0.46469,1.57136c-0.12675,0.60874 -0.2394,1.31657 -0.33793,2.12349l-1.09429,8.91786c-0.05062,0.41261 -0.40121,0.72275 -0.81693,0.72275l-3.01029,0c-0.49414,0 -0.87709,-0.43253 -0.81693,-0.92315l2.24875,-18.35713c0.05062,-0.41276 0.40121,-0.72294 0.81693,-0.72294l2.9966,0z"/>
     <path stroke="null" fill-rule="nonzero" id="形状" d="m143.51688,43.04272c0,3.05782 -1.05612,5.62728 -3.16857,7.7082c-2.09855,2.08113 -4.6898,3.12169 -7.77394,3.12169c-3.225,0 -5.85856,-0.98393 -7.90048,-2.95179c-2.05623,-1.98197 -3.08435,-4.48753 -3.08435,-7.5171c0,-3.1003 1.06338,-5.6768 3.18994,-7.7295c2.14046,-2.06685 4.81634,-3.10028 8.02723,-3.10028c3.15468,0 5.72476,0.97679 7.71046,2.9304c1.99981,1.92531 2.99971,4.4381 2.99971,7.53838zm-4.71075,-0.23357c0,-1.92531 -0.55638,-3.44714 -1.66893,-4.56551c-1.11255,-1.16084 -2.57008,-1.74124 -4.37261,-1.74124c-1.87306,0 -3.42228,0.64411 -4.64748,1.93237c-1.22519,1.30241 -1.83779,2.9375 -1.83779,4.90525c0,1.98197 0.57733,3.57455 1.7322,4.77776c1.15466,1.23163 2.64746,1.84754 4.47841,1.84754c1.83074,0 3.33764,-0.67255 4.52052,-2.01723c1.19719,-1.33078 1.79568,-3.04369 1.79568,-5.13892z"/>
     <path stroke="null" id="路径" d="m106.83445,31.41108l-0.001,0.00112c-1.8264,2.02682 -2.76998,4.69498 -2.81185,8.02759c-0.0391,3.11319 0.80349,5.52289 2.49961,7.26235c1.68299,1.72577 4.09429,2.62402 7.27034,2.66385c2.21338,0.0278 3.96775,-0.57048 5.6853,-1.71685c0.5225,-0.34872 1.27645,0.05829 1.18767,0.71923l-0.42444,3.15468c-0.06078,0.45161 -0.36911,0.83477 -0.80314,0.98372c-2.35533,0.80884 -4.31685,1.26585 -6.42979,1.2393c-4.14002,-0.05186 -7.47803,-1.40858 -9.98889,-4.08363c-2.51119,-2.65057 -3.72962,-6.14727 -3.6754,-10.46379c0.05534,-4.40509 1.44454,-8.05951 4.17741,-10.94446l0.00037,-0.00039c2.74613,-2.88573 6.17248,-4.30386 10.26131,-4.2525c3.05193,0.03834 6.07269,1.01128 9.05933,2.90535c0.39809,0.25251 0.6016,0.71489 0.53854,1.17509l-0.40328,2.94897c-0.08402,0.61361 -0.82876,0.83872 -1.26482,0.44407c-2.21699,-2.0063 -4.81437,-3.02608 -7.80282,-3.06363c-2.91229,-0.03657 -5.26281,0.96458 -7.07446,2.99994z"/>
    </g>
   </g>
  </g>
  <g stroke="null">
   <path stroke="null" fill="#F96702" clip-rule="evenodd" fill-rule="evenodd" d="m182.33371,98.95487c0,4.77405 -2.75261,7.65569 -6.58045,7.65569c-3.82785,0 -6.58045,-2.88164 -6.58045,-7.65569l0,-16.81671l-6.96754,0l0,16.55866c0,8.68792 5.46221,14.19313 13.54799,14.19313c8.08579,0 13.54799,-5.50522 13.54799,-14.19313l0,-16.55866l-6.96754,0l0,16.81671zm130.01771,1.54834l-4.17192,-10.53733l-4.17192,10.53733l8.34384,0zm11.69858,11.69858l-7.05356,0l-2.45154,-6.15036l-12.77382,0l-2.45154,6.15036l-7.05356,0l12.6878,-30.06364l6.23638,0l12.85984,30.06364zm-41.28912,-19.65534c0,-1.33329 -0.51611,-2.58057 -1.33329,-3.26872c-0.9032,-0.81718 -2.23649,-1.20427 -4.04289,-1.20427l-6.66647,0l0,9.03199l6.66647,0c1.8064,0 3.05367,-0.38709 3.95687,-1.16126s1.41931,-2.06446 1.41931,-3.39775zm-0.68815,9.54811l8.55889,10.10723l-8.08579,0l-7.99977,-9.5051l-3.82785,0l0,9.5051l-6.83851,0l0,-30.06364l13.89207,0c3.87085,0 6.70948,0.94621 8.73093,2.66659c2.02145,1.72038 3.22571,4.42998 3.22571,7.61268c0,3.99988 -1.72038,8.1288 -7.65569,9.67714zm-175.09166,-19.95641l-6.96754,0l0,30.06364l21.07465,0l0,-6.10735l-14.10712,0l0,-23.95629zm-24.9025,24.42939c-5.16114,0 -8.85996,-4.04289 -8.85996,-9.37607c0,-5.33318 3.74183,-9.37607 8.85996,-9.37607c2.45154,0 4.516,0.9032 6.3224,2.58057l4.47299,-4.47299c-2.7096,-2.79562 -6.49443,-4.42998 -10.8814,-4.42998c-9.03199,0 -16.04254,6.88152 -16.04254,15.69847s6.96754,15.69847 16.04254,15.69847c4.55901,0 8.55889,-1.84941 11.3115,-4.94609l-4.47299,-4.42998c-1.76339,1.97844 -3.91386,3.05367 -6.75249,3.05367zm137.24331,-9.37607c0,-5.4192 -3.91386,-9.03199 -9.76316,-9.03199l-4.60202,0l0,18.06399l4.60202,0c5.80628,0 9.76316,-3.6128 9.76316,-9.03199zm7.2256,0c0,8.98899 -6.62346,15.01031 -16.51565,15.01031l-12.04266,0l0,-30.06364l11.74159,0c9.89218,0 16.81671,6.06434 16.81671,15.05332zm-78.3633,0.04301c0,-5.46221 -3.6128,-9.46209 -8.64491,-9.46209c-5.07512,0 -8.64491,3.95687 -8.64491,9.46209s3.56979,9.37607 8.64491,9.37607c5.03211,0 8.64491,-3.95687 8.64491,-9.37607zm7.2256,0c0,8.77394 -6.66647,15.65546 -15.8705,15.65546s-15.8705,-6.88152 -15.8705,-15.65546c0,-8.77394 6.66647,-15.78449 15.8705,-15.78449s15.8705,6.96754 15.8705,15.78449zm74.2774,14.96731l26.02075,0l0,-6.19337l-21.93484,0c-0.9032,2.32251 -2.32251,4.42998 -4.0859,6.19337zm22.36494,-12.04266l0,-6.15036l-16.7737,0c0.12903,1.03223 0.25806,2.10747 0.25806,3.22571c0,0.98922 -0.08602,1.93543 -0.17204,2.92465l16.68769,0zm-22.66601,-18.02098l26.23579,0l0,6.19337l-21.89183,0c-1.07524,-2.32251 -2.53756,-4.38697 -4.34396,-6.19337z" class="st0"/>
  </g>
 </g>

</svg>